<svg xmlns="http://www.w3.org/2000/svg" viewBox="0 0 496.55 141.92"><defs><style>.cls-1{fill:#cc5955;}.cls-2{fill:#333334;}</style></defs><g id="Layer_2" data-name="Layer 2"><g id="Ebene_1" data-name="Ebene 1"><path class="cls-1" d="M125.86,0H.08C0,1.32-.55,14.42,2.76,33.34H88.91A159.84,159.84,0,0,1,63,92.65,156.74,156.74,0,0,1,40.06,45.18H5.2C12,73.69,27.61,110.84,63,141.92,129.55,83.41,126,3.38,125.86,0Z"/><polygon class="cls-2" points="171.04 38.46 163.9 84.51 156.85 38.46 142.57 38.46 157.13 103.64 170.67 103.64 185.32 38.46 171.04 38.46"/><path class="cls-2" d="M227.71,38.46,211,103.64h13.55l2.1-10.16h15l2.1,10.16h13.55L240.53,38.46Zm1.38,43.3,5-24.17,5,24.17Z"/><polygon class="cls-2" points="277.12 103.64 290.12 103.64 290.12 76.63 302.06 76.63 302.06 64.92 290.12 64.92 290.12 50.18 307.03 50.18 307.14 38.46 277.12 38.46 277.12 103.64"/><path class="cls-2" d="M344.92,44.23c-3-3.57-7.05-6.5-14.38-6.5s-11.16,2.93-14.18,6.5c-5.22,6.22-4.86,18-4.86,26.82s-.36,20.6,4.86,26.82c3,3.57,6.86,6.5,14.18,6.5s11.36-2.93,14.38-6.5c5.21-6.22,4.85-18,4.85-26.82S350.13,50.45,344.92,44.23ZM335,90.09a4.61,4.61,0,0,1-4.49,2.57,4.34,4.34,0,0,1-4.3-2.57c-1.55-3-1.74-11.17-1.74-19s.19-16,1.74-19a4.35,4.35,0,0,1,4.3-2.56A4.62,4.62,0,0,1,335,52c1.55,3,1.74,11.17,1.74,19S336.58,87.07,335,90.09Z"/><path class="cls-2" d="M393.88,58.33c0-12.45-3.94-19.87-18.13-19.87H357.17v65.18h13V78.28h4.3l8,25.36H396l-9.52-28.2C392.78,71.51,393.88,65.28,393.88,58.33Zm-18.21,8.24h-5.5V50.18h5.5c4.94,0,5.21,4.39,5.21,8.15S380.61,66.57,375.67,66.57Z"/><polygon class="cls-2" points="399.16 50.18 410.14 50.18 410.14 103.64 423.14 103.64 423.14 50.18 434.12 50.18 434.12 38.46 399.16 38.46 399.16 50.18"/><rect class="cls-2" x="439.9" y="38.46" width="13" height="65.18"/><rect class="cls-2" x="191.73" y="38.46" width="13" height="65.18"/><path class="cls-2" d="M485.93,66.2l-8.15-3.3C474,61.35,473.3,60.16,473.3,56c0-2.2.27-3.57,1.1-4.67a4.35,4.35,0,0,1,3.75-1.74,4.19,4.19,0,0,1,3.75,1.65c1.1,1.46,1.1,3.57,1.1,5.86h13c0-6.59-1.46-11.81-5-15.11-2.84-2.65-7.05-4.12-12.82-4.12a17.82,17.82,0,0,0-12,4.12c-3.94,3.39-5.86,8.42-5.86,14.46,0,10.16,2.75,13.64,9.34,16.39l8.24,3.39c4.66,1.92,5.67,3,5.67,9.25,0,2.65-.37,4.39-1.28,5.49s-2.11,1.65-4.12,1.65a5.21,5.21,0,0,1-4-1.56c-1.19-1.38-1.37-3.3-1.37-5.95V80.53h-13v4.62c0,6.68,1.1,11.26,4.3,14.46,2.93,2.93,7.69,4.76,14.1,4.76s11.26-2,14.19-4.85c3.39-3.3,4.21-7.87,4.21-14.46C496.55,73.25,494.17,69.59,485.93,66.2Z"/></g></g></svg>